REM DIRINDEX 1\2,1\3,1\4,1\5,1\6
REM DIRNAME folder01,folder02,folder03,folder04,folder05,folder06
TITLE ""
FILE "Disc4Track66.mp3" MP3
  TRACK 01 AUDIO
    TITLE "3:cjc030_08021"
    INDEX 01 00:00:00
  TRACK 02 AUDIO
    TITLE "0:"
    INDEX 01 00:01:22
  TRACK 03 AUDIO
    TITLE "4:cjc030_08022"
    INDEX 01 00:01:32
  TRACK 04 AUDIO
    TITLE "0:"
    INDEX 01 00:03:17
  TRACK 05 AUDIO
    TITLE "5:cjc030_08023"
    INDEX 01 00:03:25
  TRACK 06 AUDIO
    TITLE "0:"
    INDEX 01 00:04:52
  TRACK 07 AUDIO
    TITLE "6:cjc030_08024"
    INDEX 01 00:04:66
  TRACK 08 AUDIO
    TITLE "0:"
    INDEX 01 00:08:50
  TRACK 09 AUDIO
    TITLE "3:cjc030_08025"
    INDEX 01 00:09:22
  TRACK 10 AUDIO
    TITLE "0:"
    INDEX 01 00:10:55
  TRACK 11 AUDIO
    TITLE "4:cjc030_08026"
    INDEX 01 00:10:66
  TRACK 12 AUDIO
    TITLE "0:"
    INDEX 01 00:11:58
  TRACK 13 AUDIO
    TITLE "5:cjc030_08027"
    INDEX 01 00:11:68
  TRACK 14 AUDIO
    TITLE "0:"
    INDEX 01 00:13:24
  TRACK 15 AUDIO
    TITLE "3:cjc030_08028"
    INDEX 01 00:14:06
  TRACK 16 AUDIO
    TITLE "0:"
    INDEX 01 00:15:13
  TRACK 17 AUDIO
    TITLE "4:cjc030_08029"
    INDEX 01 00:15:21
  TRACK 18 AUDIO
    TITLE "0:"
    INDEX 01 00:16:46
  TRACK 19 AUDIO
    TITLE "5:cjc030_08030"
    INDEX 01 00:16:55
  TRACK 20 AUDIO
    TITLE "0:"
    INDEX 01 00:17:61
  TRACK 21 AUDIO
    TITLE "3:cjc030_08031"
    INDEX 01 00:18:41
  TRACK 22 AUDIO
    TITLE "0:"
    INDEX 01 00:19:58
  TRACK 23 AUDIO
    TITLE "4:cjc030_08032"
    INDEX 01 00:19:67
  TRACK 24 AUDIO
    TITLE "0:"
    INDEX 01 00:20:59
  TRACK 25 AUDIO
    TITLE "5:cjc030_08033"
    INDEX 01 00:20:69
  TRACK 26 AUDIO
    TITLE "0:"
    INDEX 01 00:22:09
  TRACK 27 AUDIO
    TITLE "6:cjc030_08034"
    INDEX 01 00:22:21
  TRACK 28 AUDIO
    TITLE "0:"
    INDEX 01 00:27:00
  TRACK 29 AUDIO
    TITLE "3:cjc030_08035"
    INDEX 01 00:27:49
  TRACK 30 AUDIO
    TITLE "0:"
    INDEX 01 00:28:55
  TRACK 31 AUDIO
    TITLE "4:cjc030_08036"
    INDEX 01 00:28:64
  TRACK 32 AUDIO
    TITLE "0:"
    INDEX 01 00:32:29
  TRACK 33 AUDIO
    TITLE "5:cjc030_08037"
    INDEX 01 00:32:39
  TRACK 34 AUDIO
    TITLE "0:"
    INDEX 01 00:33:46
  TRACK 35 AUDIO
    TITLE "6:cjc030_08038"
    INDEX 01 00:33:58
  TRACK 36 AUDIO
    TITLE "0:"
    INDEX 01 00:35:47
  TRACK 37 AUDIO
    TITLE "3:cjc030_08039"
    INDEX 01 00:36:17
  TRACK 38 AUDIO
    TITLE "0:"
    INDEX 01 00:37:34
  TRACK 39 AUDIO
    TITLE "4:cjc030_08040"
    INDEX 01 00:37:42
  TRACK 40 AUDIO
    TITLE "0:"
    INDEX 01 00:38:24
  TRACK 41 AUDIO
    TITLE "5:cjc030_08041"
    INDEX 01 00:38:33
  TRACK 42 AUDIO
    TITLE "0:"
    INDEX 01 00:39:51
  TRACK 43 AUDIO
    TITLE "6:cjc030_08042"
    INDEX 01 00:39:62
  TRACK 44 AUDIO
    TITLE "0:"
    INDEX 01 00:43:17
  TRACK 45 AUDIO
    TITLE "3:cjc030_08043"
    INDEX 01 00:43:64
  TRACK 46 AUDIO
    TITLE "0:"
    INDEX 01 00:44:73
  TRACK 47 AUDIO
    TITLE "4:cjc030_08044"
    INDEX 01 00:45:06
  TRACK 48 AUDIO
    TITLE "0:"
    INDEX 01 00:46:56
  TRACK 49 AUDIO
    TITLE "5:cjc030_08045"
    INDEX 01 00:46:66
  TRACK 50 AUDIO
    TITLE "0:"
    INDEX 01 00:47:72
  TRACK 51 AUDIO
    TITLE "3:cjc030_08046"
    INDEX 01 00:48:51
  TRACK 52 AUDIO
    TITLE "0:"
    INDEX 01 00:49:57
  TRACK 53 AUDIO
    TITLE "4:cjc030_08047"
    INDEX 01 00:49:65
  TRACK 54 AUDIO
    TITLE "0:"
    INDEX 01 00:51:58
  TRACK 55 AUDIO
    TITLE "5:cjc030_08048"
    INDEX 01 00:51:67
  TRACK 56 AUDIO
    TITLE "0:"
    INDEX 01 00:52:69
  TRACK 57 AUDIO
    TITLE "6:cjc030_08049"
    INDEX 01 00:53:08
  TRACK 58 AUDIO
    TITLE "0:"
    INDEX 01 00:57:17
  TRACK 59 AUDIO
    TITLE "3:cjc030_08050"
    INDEX 01 00:57:66
  TRACK 60 AUDIO
    TITLE "0:"
    INDEX 01 00:58:62
  TRACK 61 AUDIO
    TITLE "4:cjc030_08051"
    INDEX 01 00:58:73
  TRACK 62 AUDIO
    TITLE "0:"
    INDEX 01 01:00:49
  TRACK 63 AUDIO
    TITLE "5:cjc030_08052"
    INDEX 01 01:00:55
  TRACK 64 AUDIO
    TITLE "0:"
    INDEX 01 01:01:56
  TRACK 65 AUDIO
    TITLE "3:cjc030_08053"
    INDEX 01 01:02:38
  TRACK 66 AUDIO
    TITLE "0:"
    INDEX 01 01:03:63
  TRACK 67 AUDIO
    TITLE "4:cjc030_08054"
    INDEX 01 01:03:71
  TRACK 68 AUDIO
    TITLE "0:"
    INDEX 01 01:04:72
  TRACK 69 AUDIO
    TITLE "5:cjc030_08055"
    INDEX 01 01:05:05
  TRACK 70 AUDIO
    TITLE "0:"
    INDEX 01 01:06:30
  TRACK 71 AUDIO
    TITLE "6:cjc030_08056"
    INDEX 01 01:06:43
  TRACK 72 AUDIO
    TITLE "0:"
    INDEX 01 01:10:06
